HIERARCHY
ROOT Hips
{
  OFFSET -31.5692 30.0904 122.763
  CHANNELS 6 Xposition Yposition Zposition Zrotation Xrotation Yrotation
  JOINT LeftUpLeg
  {
    OFFSET 8.64259 1.95398 -2.38835
    CHANNELS 3 Zrotation Xrotation Yrotation
    JOINT LeftLeg
    {
      OFFSET 43.7702 0 0
      CHANNELS 3 Zrotation Xrotation Yrotation
      JOINT LeftFoot
      {
        OFFSET 40.6238 0 0
        CHANNELS 3 Zrotation Xrotation Yrotation
        JOINT LeftToeBase
        {
          OFFSET 12.7242 0 0
          CHANNELS 3 Zrotation Xrotation Yrotation
          End Site
          {
            OFFSET 0 0 0
          }
        }
      }
    }
  }
  JOINT RightUpLeg
  {
    OFFSET -8.2249 1.95398 -2.59336
    CHANNELS 3 Zrotation Xrotation Yrotation
    JOINT RightLeg
    {
      OFFSET 43.5653 0 0
      CHANNELS 3 Zrotation Xrotation Yrotation
      JOINT RightFoot
      {
        OFFSET 40.6238 0 0
        CHANNELS 3 Zrotation Xrotation Yrotation
        JOINT RightToeBase
        {
          OFFSET 12.7242 0 0
          CHANNELS 3 Zrotation Xrotation Yrotation
          End Site
          {
            OFFSET 0 0 0
          }
        }
      }
    }
  }
  JOINT Spine
  {
    OFFSET 0.165834 0.87714 6.61349
    CHANNELS 3 Zrotation Xrotation Yrotation
    JOINT Spine1
    {
      OFFSET 7.38963 1.71661e-005 0
      CHANNELS 3 Zrotation Xrotation Yrotation
      JOINT Spine2
      {
        OFFSET 11.9445 1.14441e-005 0
        CHANNELS 3 Zrotation Xrotation Yrotation
        JOINT Spine3
        {
          OFFSET 14.7254 4.19617e-005 0
          CHANNELS 3 Zrotation Xrotation Yrotation
          JOINT Spine4
          {
            OFFSET 10.9679 0 0
            CHANNELS 3 Zrotation Xrotation Yrotation
            JOINT RightShoulder
            {
              OFFSET 2.46616 -1.6653 3.69651
              CHANNELS 3 Zrotation Xrotation Yrotation
              JOINT RightArm
              {
                OFFSET 13.0012 0 0
                CHANNELS 3 Zrotation Xrotation Yrotation
                JOINT RightForeArm
                {
                  OFFSET 28.7848 1.62311e-005 0
                  CHANNELS 3 Zrotation Xrotation Yrotation
                  JOINT RightHand
                  {
                    OFFSET 26.5688 1.62095e-005 0
                    CHANNELS 3 Zrotation Xrotation Yrotation
                    End Site
                    {
                      OFFSET 0 0 0
                    }
                  }
                }
              }
            }
            JOINT LeftShoulder
            {
              OFFSET 2.38034 -1.29275 -3.7523
              CHANNELS 3 Zrotation Xrotation Yrotation
              JOINT LeftArm
              {
                OFFSET 16.3182 6.07031e-005 0
                CHANNELS 3 Zrotation Xrotation Yrotation
                JOINT LeftForeArm
                {
                  OFFSET 27.0901 0 0
                  CHANNELS 3 Zrotation Xrotation Yrotation
                  JOINT LeftHand
                  {
                    OFFSET 24.5451 1.51738e-005 0
                    CHANNELS 3 Zrotation Xrotation Yrotation
                    End Site
                    {
                      OFFSET 0 0 0
                    }
                  }
                }
              }
            }
            JOINT Neck
            {
              OFFSET 5.0226 -0.0266342 0
              CHANNELS 3 Zrotation Xrotation Yrotation
              JOINT Head
              {
                OFFSET 6.69364 2.86102e-005 0
                CHANNELS 3 Zrotation Xrotation Yrotation
                End Site
                {
                  OFFSET 0 0 0
                }
              }
            }
          }
        }
      }
    }
  }
}
MOTION
Frames:	7
Frame Time:	0.0416667
-346.962 85.8758 327.467 59.856 64.6399 125.677 -179.813 -2.20894 105.448 -63.7463 24.7374 15.4059 32.7921 -11.5689 -13.7001 112.899 19.8485 -33.6921 159.955 36.513 95.6982 -53.542 2.31436 19.0648 83.4663 -9.31557 6.41266 22.6289 2.32706 2.14422 -3.30546 7.03677 -91.6658 12.7361 -7.36054 -2.4577 1.0844 -7.46153 -2.12981 -21.5623 -6.28121 -4.56231 -1.54966 -6.28121 -4.56231 117.611 -42.0009 -55.658 -4.76494 20.7472 27.7723 63.7984 28.4225 -94.4593 50.4108 -35.707 -89.9516 -80.5138 -17.2701 90.3714 -49.5952 7.08798 -41.9892 11.2386 -23.7358 -63.6052 16.8648 -7.57802 -51.7318 70.6541 -17.8856 -22.549 -60.1845 -10.3727 24.3456 
-339.66 84.6389 320.895 74.2395 45.9737 115.861 -175.068 11.4154 102.448 -90.4788 11.6573 6.81183 55.5774 -3.89233 4.16601 96.1955 23.1112 -17.3156 165.307 31.2404 106.479 -56.1538 1.24062 10.3363 89.6231 -13.2471 8.1833 25.0118 -0.327126 8.79246 -1.48053 7.66757 -92.085 11.4626 -3.91896 -3.74743 -0.207379 -4.07996 -3.57138 -22.7235 -2.61305 -4.7506 -2.7109 -2.61305 -4.75059 104.504 -45.151 -78.2659 8.68536 48.2184 9.10029 16.4605 14.5899 -92.0524 38.9392 -21.1592 -55.4571 -89.0023 -37.4554 77.1643 -21.2731 12.3961 -12.914 -14.7906 -44.2261 -107.946 23.1833 -8.73806 -46.4815 57.8744 -2.03467 -17.8329 -41.8074 4.20189 17.7131 
-333.303 83.1356 314.136 78.5122 27.6364 109.572 -165.129 35.5675 94.157 -109.66 9.10428 4.25052 62.7238 0.222954 8.74377 73.3453 18.1446 -6.84163 174.038 28.8337 106.287 -57.4272 -10.5547 3.32604 89.9153 -17.7558 2.89159 29.9147 -1.60002 5.86356 0.266889 7.93334 -91.9208 10.9821 -0.358516 -3.79469 -0.694387 -0.525019 -3.77528 -23.1855 0.797595 -3.72732 -3.17286 0.797625 -3.7273 90.3486 -32.8738 -105.194 32.5899 14.076 -21.1641 -35.1014 -8.20991 -84.473 -37.2522 7.75308 -26.6926 -84.252 -43.4151 86.504 -23.1521 26.6659 16.4474 -21.046 -54.6127 -136.737 26.3692 -13.0779 -53.3001 42.5848 10.3817 -0.477127 -21.2687 9.40322 4.09946 
-323.284 83.9797 304.962 80.25 23.5874 103.884 -164.962 49.8718 89.9899 -109.954 10.4835 3.93139 68.9589 5.65731 14.1185 26.8333 1.745 -7.46181 176.076 15.2887 100.995 -52.9306 -17.065 -0.468454 89.4979 -21.0277 -4.15295 33.9789 -3.7827 9.70464 1.80467 7.69747 -91.2566 11.5207 3.00246 -2.8133 -0.150132 2.87581 -2.94267 -22.7015 3.70905 -1.78056 -2.68889 3.70906 -1.78056 90.7958 -23.5499 -107.606 33.8486 21.5263 -34.0439 -33.4693 -8.23395 -83.7161 -44.5978 6.38655 -25.3991 -83.2256 -38.9407 87.6601 -28.6852 32.8636 41.5631 82.7356 -68.074 -42.3786 25.9117 -18.188 -62.6457 33.1952 6.57277 4.65646 -14.7147 4.11924 0.819849 
-311.05 87.4274 293.631 82.4376 26.5828 99.5901 -171.421 53.7584 89.5342 -93.2102 -2.58121 2.96672 75.9439 8.18879 7.06606 17.4369 -2.18356 -7.41502 173.07 -1.1576 91.178 -38.0091 -23.1641 -2.07148 73.532 -9.8794 -4.30606 47.2003 -8.44498 11.6021 2.84761 7.66216 -90.7434 11.6056 5.31666 -2.03165 -0.056402 5.22212 -2.26418 -22.6782 5.68073 -0.335047 -2.66555 5.68072 -0.335054 95.0864 -10.8134 -102.925 43.8582 29.4737 -35.758 -34.0034 -7.70663 -88.5919 -45.9528 7.5208 -27.5006 -83.5064 -31.4292 86.0843 -31.923 32.0299 53.5819 91.6943 -55.1852 -40.6631 32.2652 -22.9875 -62.6635 31.4935 0.290981 5.66884 -16.8937 -1.87258 -1.87111 
-297.494 91.0865 281.503 82.316 33.2271 96.598 -177.911 52.0444 88.045 -67.8304 -3.29368 1.84212 75.3359 8.67199 6.08289 16.9057 -2.93365 -6.23425 171.125 -15.168 86.0327 -23.9486 -26.7486 -4.85532 57.4557 2.29377 -0.278348 30.5502 -2.71984 11.2924 3.11146 7.55225 -89.9312 11.8128 6.22012 -0.533241 0.1566 6.1906 -0.807545 -22.4957 6.09176 1.368 -2.48302 6.09174 1.36799 96.1535 -5.82176 -102.171 41.094 29.3929 -26.7942 -40.3052 -7.97786 -91.8013 -41.8916 5.90774 -27.4553 -83.5942 -22.2719 84.1056 -39.4494 32.4005 57.6662 85.8361 -34.758 -50.4759 46.2863 -30.4524 -57.2666 32.5422 -7.63247 -1.76905 -21.5999 -6.47307 -0.522738 
-283.998 93.3126 269.571 83.0695 33.2046 93.6665 -178.746 44.1397 88.1281 -37.9172 3.73792 -0.212913 68.5376 6.39823 3.92687 25.4268 -0.722661 -2.30824 170.038 -21.1027 84.3329 -28.4014 -28.2695 -8.53231 59.7843 1.25913 -2.74422 16.9393 2.40361 10.0386 3.63084 7.44412 -89.0966 11.9626 7.64475 0.977482 0.314103 7.68034 0.638067 -22.3756 6.99587 3.24056 -2.36294 6.99587 3.24054 95.2422 -8.29949 -103.71 32.487 19.4277 -18.2396 -41.5573 -6.15421 -92.2512 -50.7335 5.4244 -22.2965 -83.7854 -19.3532 83.0433 -41.1757 32.2442 59.7285 84.5038 -3.2749 -55.3993 69.2731 -36.245 -42.1056 28.0304 -12.8566 -9.7651 -20.3864 -8.63812 0.420608 
